<svg width="20" height="20" viewBox="0 0 20 20" fill="none" xmlns="http://www.w3.org/2000/svg">
<g id="heart">
<mask id="mask0_73_62" style="mask-type:alpha" maskUnits="userSpaceOnUse" x="0" y="0" width="20" height="20">
<rect id="Bounding box" width="20" height="20" fill="#D9D9D9"/>
</mask>
<g mask="url(#mask0_73_62)">
<path id="favorite" d="M10 17.5L8.79169 16.4166C7.38891 15.1528 6.22919 14.0625 5.31252 13.1458C4.39585 12.2291 3.66669 11.4062 3.12502 10.6771C2.58335 9.9479 2.20488 9.27776 1.9896 8.66665C1.77433 8.05553 1.66669 7.43053 1.66669 6.79165C1.66669 5.48609 2.10419 4.39581 2.97919 3.52081C3.85419 2.64581 4.94446 2.20831 6.25002 2.20831C6.97224 2.20831 7.65974 2.36109 8.31252 2.66665C8.9653 2.9722 9.5278 3.40276 10 3.95831C10.4722 3.40276 11.0347 2.9722 11.6875 2.66665C12.3403 2.36109 13.0278 2.20831 13.75 2.20831C15.0556 2.20831 16.1459 2.64581 17.0209 3.52081C17.8959 4.39581 18.3334 5.48609 18.3334 6.79165C18.3334 7.43053 18.2257 8.05553 18.0104 8.66665C17.7952 9.27776 17.4167 9.9479 16.875 10.6771C16.3334 11.4062 15.6042 12.2291 14.6875 13.1458C13.7709 14.0625 12.6111 15.1528 11.2084 16.4166L10 17.5ZM10 15.25C11.3334 14.0555 12.4306 13.0312 13.2917 12.1771C14.1528 11.3229 14.8334 10.5798 15.3334 9.9479C15.8334 9.31595 16.1806 8.75345 16.375 8.2604C16.5695 7.76734 16.6667 7.27776 16.6667 6.79165C16.6667 5.95831 16.3889 5.26387 15.8334 4.70831C15.2778 4.15276 14.5834 3.87498 13.75 3.87498C13.0972 3.87498 12.4931 4.05901 11.9375 4.42706C11.382 4.79512 11 5.26387 10.7917 5.83331H9.20835C9.00002 5.26387 8.61808 4.79512 8.06252 4.42706C7.50696 4.05901 6.9028 3.87498 6.25002 3.87498C5.41669 3.87498 4.72224 4.15276 4.16669 4.70831C3.61113 5.26387 3.33335 5.95831 3.33335 6.79165C3.33335 7.27776 3.43058 7.76734 3.62502 8.2604C3.81946 8.75345 4.16669 9.31595 4.66669 9.9479C5.16669 10.5798 5.84724 11.3229 6.70835 12.1771C7.56946 13.0312 8.66669 14.0555 10 15.25Z" fill="#1C1B1F"/>
</g>
</g>
</svg>
